<?xml version="1.0" encoding="utf-8"?>
<svg width="16" height="16" viewBox="0 0 16 16" xmlns="http://www.w3.org/2000/svg">
  <g fill="none" fill-rule="evenodd">
    <polygon fill="#F4AF3D" fill-opacity=".7" points="1 16 16 16 16 9 1 9"/>
    <polygon fill="#9AA7B0" fill-opacity=".8" points="7 1 3 5 7 5"/>
    <polygon fill="#9AA7B0" fill-opacity=".8" points="8 1 8 6 3 6 3 8 13 8 13 1"/>
    <path fill="#231F20" fill-opacity=".7" d="M1.39509277,3.58770752 C1.62440186,3.83789062 1.83782861,4 2.28682861,4 C2.81318359,4 3,3.58770752 3,3.29760742 L3,0 L4,0 L4,3.58770752 C4,4.31964111 3.32670898,5 2.45,5 C1.629,5 1.15,4.76264111 0.8,4.31964111 L1.39509277,3.58770752 Z" transform="translate(1 10)"/>
    <polygon fill="#231F20" fill-opacity=".7" points="11 10 12 10 12 14 14.5 14 14.5 15 11 15"/>
    <path fill="#231F20" fill-opacity=".7" d="M 6 12.501 C 6 11 6.931 10 8.256 10 C 9.202 10 9.55 10.311 9.969 10.753 L 9.427 11.427 C 9.077 11.068 8.75 11 8.25 11 C 7.418 11 7 11.738 7 12.487 C 7 13.236 7.412 14 8.25 14 C 8.787 14 9.052 13.893 9.427 13.506 L 10 14.144 C 9.544 14.669 9.197 15 8.225 15 C 6.949 15 6 14.002 6 12.501 Z"/>
  </g>
</svg>